<?xml version="1.0" ?><!DOCTYPE svg  PUBLIC '-//W3C//DTD SVG 1.1//EN'  'http://www.w3.org/Graphics/SVG/1.1/DTD/svg11.dtd'><svg enable-background="new 0 0 500 500" height="500px" id="Layer_1" version="1.1" viewBox="0 0 500 500" width="500px" xml:space="preserve" xmlns="http://www.w3.org/2000/svg" xmlns:xlink="http://www.w3.org/1999/xlink"><g><line fill="none" stroke="#130B7A" stroke-linecap="round" stroke-linejoin="round" stroke-miterlimit="2.6131" stroke-width="10" x1="44.131" x2="455.868" y1="90.968" y2="90.968"/><path d="   M455.868,90.968c10.515,0,19.132,8.617,19.132,19.139" fill="none" stroke="#130B7A" stroke-linecap="round" stroke-linejoin="round" stroke-miterlimit="2.6131" stroke-width="10"/><line fill="none" stroke="#130B7A" stroke-linecap="round" stroke-linejoin="round" stroke-miterlimit="2.6131" stroke-width="10" x1="475" x2="475" y1="110.107" y2="434.041"/><path d="   M475,434.041c0,10.565-8.617,19.183-19.132,19.183" fill="none" stroke="#130B7A" stroke-linecap="round" stroke-linejoin="round" stroke-miterlimit="2.6131" stroke-width="10"/><line fill="none" stroke="#130B7A" stroke-linecap="round" stroke-linejoin="round" stroke-miterlimit="2.6131" stroke-width="10" x1="455.868" x2="44.131" y1="453.224" y2="453.224"/><path d="   M44.131,453.224c-10.522,0-19.131-8.616-19.131-19.183" fill="none" stroke="#130B7A" stroke-linecap="round" stroke-linejoin="round" stroke-miterlimit="2.6131" stroke-width="10"/><line fill="none" stroke="#130B7A" stroke-linecap="round" stroke-linejoin="round" stroke-miterlimit="2.6131" stroke-width="10" x1="25" x2="25" y1="434.041" y2="110.107"/><path d="   M25,110.107c0-10.522,8.609-19.139,19.131-19.139" fill="none" stroke="#130B7A" stroke-linecap="round" stroke-linejoin="round" stroke-miterlimit="2.6131" stroke-width="10"/><g><g><line fill="none" stroke="#130B7A" stroke-linecap="round" stroke-linejoin="round" stroke-miterlimit="2.6131" stroke-width="10" x1="114.718" x2="114.718" y1="46.777" y2="124.947"/><path d="     M114.718,165.753c10.531,0,19.13-8.633,19.13-19.139c0-10.532-8.599-19.148-19.13-19.148c-10.532,0-19.123,8.617-19.123,19.148     C95.595,157.121,104.187,165.753,114.718,165.753" fill="none" stroke="#130B7A" stroke-linecap="round" stroke-linejoin="round" stroke-miterlimit="2.6131" stroke-width="10"/></g><g><line fill="none" stroke="#130B7A" stroke-linecap="round" stroke-linejoin="round" stroke-miterlimit="2.6131" stroke-width="10" x1="385.291" x2="385.291" y1="46.777" y2="127.466"/><path d="     M385.291,165.753c10.514,0,19.097-8.633,19.097-19.139c0-10.532-8.583-19.148-19.097-19.148     c-10.549,0-19.132,8.617-19.132,19.148C366.159,157.121,374.742,165.753,385.291,165.753" fill="none" stroke="#130B7A" stroke-linecap="round" stroke-linejoin="round" stroke-miterlimit="2.6131" stroke-width="10"/></g></g><line fill="none" stroke="#130B7A" stroke-linecap="round" stroke-linejoin="round" stroke-miterlimit="2.6131" stroke-width="10" x1="75.23" x2="424.779" y1="212.75" y2="212.75"/><line fill="none" stroke="#130B7A" stroke-linecap="round" stroke-linejoin="round" stroke-miterlimit="2.6131" stroke-width="10" x1="85.853" x2="102.826" y1="261.477" y2="261.477"/><path d="   M102.826,261.477c5.862,0,10.649,4.771,10.649,10.614" fill="none" stroke="#130B7A" stroke-linecap="round" stroke-linejoin="round" stroke-miterlimit="2.6131" stroke-width="10"/><line fill="none" stroke="#130B7A" stroke-linecap="round" stroke-linejoin="round" stroke-miterlimit="2.6131" stroke-width="10" x1="113.475" x2="113.475" y1="272.091" y2="289.089"/><path d="   M113.475,289.089c0,5.828-4.787,10.632-10.649,10.632" fill="none" stroke="#130B7A" stroke-linecap="round" stroke-linejoin="round" stroke-miterlimit="2.6131" stroke-width="10"/><line fill="none" stroke="#130B7A" stroke-linecap="round" stroke-linejoin="round" stroke-miterlimit="2.6131" stroke-width="10" x1="102.826" x2="85.853" y1="299.721" y2="299.721"/><path d="   M85.853,299.721c-5.844,0-10.623-4.804-10.623-10.632" fill="none" stroke="#130B7A" stroke-linecap="round" stroke-linejoin="round" stroke-miterlimit="2.6131" stroke-width="10"/><line fill="none" stroke="#130B7A" stroke-linecap="round" stroke-linejoin="round" stroke-miterlimit="2.6131" stroke-width="10" x1="75.23" x2="75.23" y1="289.089" y2="272.091"/><path d="   M75.23,272.091c0-5.845,4.779-10.614,10.623-10.614" fill="none" stroke="#130B7A" stroke-linecap="round" stroke-linejoin="round" stroke-miterlimit="2.6131" stroke-width="10"/><line fill="none" stroke="#130B7A" stroke-linecap="round" stroke-linejoin="round" stroke-miterlimit="2.6131" stroke-width="10" x1="287.268" x2="304.248" y1="261.477" y2="261.477"/><path d="   M304.248,261.477c5.846,0,10.633,4.771,10.633,10.614" fill="none" stroke="#130B7A" stroke-linecap="round" stroke-linejoin="round" stroke-miterlimit="2.6131" stroke-width="10"/><line fill="none" stroke="#130B7A" stroke-linecap="round" stroke-linejoin="round" stroke-miterlimit="2.6131" stroke-width="10" x1="314.881" x2="314.881" y1="272.091" y2="289.089"/><path d="   M314.881,289.089c0,5.828-4.787,10.632-10.633,10.632" fill="none" stroke="#130B7A" stroke-linecap="round" stroke-linejoin="round" stroke-miterlimit="2.6131" stroke-width="10"/><line fill="none" stroke="#130B7A" stroke-linecap="round" stroke-linejoin="round" stroke-miterlimit="2.6131" stroke-width="10" x1="304.248" x2="287.268" y1="299.721" y2="299.721"/><path d="   M287.268,299.721c-5.846,0-10.633-4.804-10.633-10.632" fill="none" stroke="#130B7A" stroke-linecap="round" stroke-linejoin="round" stroke-miterlimit="2.6131" stroke-width="10"/><line fill="none" stroke="#130B7A" stroke-linecap="round" stroke-linejoin="round" stroke-miterlimit="2.6131" stroke-width="10" x1="276.635" x2="276.635" y1="289.089" y2="272.091"/><path d="   M276.635,272.091c0-5.845,4.787-10.614,10.633-10.614" fill="none" stroke="#130B7A" stroke-linecap="round" stroke-linejoin="round" stroke-miterlimit="2.6131" stroke-width="10"/><line fill="none" stroke="#130B7A" stroke-linecap="round" stroke-linejoin="round" stroke-miterlimit="2.6131" stroke-width="10" x1="387.979" x2="404.977" y1="261.477" y2="261.477"/><path d="   M404.977,261.477c5.845,0,10.615,4.771,10.615,10.614" fill="none" stroke="#130B7A" stroke-linecap="round" stroke-linejoin="round" stroke-miterlimit="2.6131" stroke-width="10"/><line fill="none" stroke="#130B7A" stroke-linecap="round" stroke-linejoin="round" stroke-miterlimit="2.6131" stroke-width="10" x1="415.592" x2="415.592" y1="272.091" y2="289.089"/><path d="   M415.592,289.089c0,5.828-4.771,10.632-10.615,10.632" fill="none" stroke="#130B7A" stroke-linecap="round" stroke-linejoin="round" stroke-miterlimit="2.6131" stroke-width="10"/><line fill="none" stroke="#130B7A" stroke-linecap="round" stroke-linejoin="round" stroke-miterlimit="2.6131" stroke-width="10" x1="404.977" x2="387.979" y1="299.721" y2="299.721"/><path d="   M387.979,299.721c-5.846,0-10.614-4.804-10.614-10.632" fill="none" stroke="#130B7A" stroke-linecap="round" stroke-linejoin="round" stroke-miterlimit="2.6131" stroke-width="10"/><line fill="none" stroke="#130B7A" stroke-linecap="round" stroke-linejoin="round" stroke-miterlimit="2.6131" stroke-width="10" x1="377.363" x2="377.363" y1="289.089" y2="272.091"/><path d="   M377.363,272.091c0-5.845,4.77-10.614,10.615-10.614" fill="none" stroke="#130B7A" stroke-linecap="round" stroke-linejoin="round" stroke-miterlimit="2.6131" stroke-width="10"/><line fill="none" stroke="#130B7A" stroke-linecap="round" stroke-linejoin="round" stroke-miterlimit="2.6131" stroke-width="10" x1="85.853" x2="102.826" y1="359.802" y2="359.802"/><path d="   M102.826,359.802c5.862,0,10.649,4.786,10.649,10.615" fill="none" stroke="#130B7A" stroke-linecap="round" stroke-linejoin="round" stroke-miterlimit="2.6131" stroke-width="10"/><line fill="none" stroke="#130B7A" stroke-linecap="round" stroke-linejoin="round" stroke-miterlimit="2.6131" stroke-width="10" x1="113.475" x2="113.475" y1="370.417" y2="387.432"/><path d="   M113.475,387.432c0,5.828-4.787,10.615-10.649,10.615" fill="none" stroke="#130B7A" stroke-linecap="round" stroke-linejoin="round" stroke-miterlimit="2.6131" stroke-width="10"/><line fill="none" stroke="#130B7A" stroke-linecap="round" stroke-linejoin="round" stroke-miterlimit="2.6131" stroke-width="10" x1="102.826" x2="85.853" y1="398.047" y2="398.047"/><path d="   M85.853,398.047c-5.844,0-10.623-4.787-10.623-10.615" fill="none" stroke="#130B7A" stroke-linecap="round" stroke-linejoin="round" stroke-miterlimit="2.6131" stroke-width="10"/><line fill="none" stroke="#130B7A" stroke-linecap="round" stroke-linejoin="round" stroke-miterlimit="2.6131" stroke-width="10" x1="75.23" x2="75.23" y1="387.432" y2="370.417"/><path d="   M75.23,370.417c0-5.829,4.779-10.615,10.623-10.615" fill="none" stroke="#130B7A" stroke-linecap="round" stroke-linejoin="round" stroke-miterlimit="2.6131" stroke-width="10"/><line fill="none" stroke="#130B7A" stroke-linecap="round" stroke-linejoin="round" stroke-miterlimit="2.6131" stroke-width="10" x1="186.556" x2="203.545" y1="359.802" y2="359.802"/><path d="   M203.545,359.802c5.854,0,10.632,4.786,10.632,10.615" fill="none" stroke="#130B7A" stroke-linecap="round" stroke-linejoin="round" stroke-miterlimit="2.6131" stroke-width="10"/><line fill="none" stroke="#130B7A" stroke-linecap="round" stroke-linejoin="round" stroke-miterlimit="2.6131" stroke-width="10" x1="214.178" x2="214.178" y1="370.417" y2="387.432"/><path d="   M214.178,387.432c0,5.828-4.778,10.615-10.632,10.615" fill="none" stroke="#130B7A" stroke-linecap="round" stroke-linejoin="round" stroke-miterlimit="2.6131" stroke-width="10"/><line fill="none" stroke="#130B7A" stroke-linecap="round" stroke-linejoin="round" stroke-miterlimit="2.6131" stroke-width="10" x1="203.545" x2="186.556" y1="398.047" y2="398.047"/><path d="   M186.556,398.047c-5.836,0-10.632-4.787-10.632-10.615" fill="none" stroke="#130B7A" stroke-linecap="round" stroke-linejoin="round" stroke-miterlimit="2.6131" stroke-width="10"/><line fill="none" stroke="#130B7A" stroke-linecap="round" stroke-linejoin="round" stroke-miterlimit="2.6131" stroke-width="10" x1="175.924" x2="175.924" y1="387.432" y2="370.417"/><path d="   M175.924,370.417c0-5.829,4.795-10.615,10.632-10.615" fill="none" stroke="#130B7A" stroke-linecap="round" stroke-linejoin="round" stroke-miterlimit="2.6131" stroke-width="10"/><line fill="none" stroke="#130B7A" stroke-linecap="round" stroke-linejoin="round" stroke-miterlimit="2.6131" stroke-width="10" x1="287.268" x2="304.248" y1="359.802" y2="359.802"/><path d="   M304.248,359.802c5.846,0,10.633,4.786,10.633,10.615" fill="none" stroke="#130B7A" stroke-linecap="round" stroke-linejoin="round" stroke-miterlimit="2.6131" stroke-width="10"/><line fill="none" stroke="#130B7A" stroke-linecap="round" stroke-linejoin="round" stroke-miterlimit="2.6131" stroke-width="10" x1="314.881" x2="314.881" y1="370.417" y2="387.432"/><path d="   M314.881,387.432c0,5.828-4.787,10.615-10.633,10.615" fill="none" stroke="#130B7A" stroke-linecap="round" stroke-linejoin="round" stroke-miterlimit="2.6131" stroke-width="10"/><line fill="none" stroke="#130B7A" stroke-linecap="round" stroke-linejoin="round" stroke-miterlimit="2.6131" stroke-width="10" x1="304.248" x2="287.268" y1="398.047" y2="398.047"/><path d="   M287.268,398.047c-5.846,0-10.633-4.787-10.633-10.615" fill="none" stroke="#130B7A" stroke-linecap="round" stroke-linejoin="round" stroke-miterlimit="2.6131" stroke-width="10"/><line fill="none" stroke="#130B7A" stroke-linecap="round" stroke-linejoin="round" stroke-miterlimit="2.6131" stroke-width="10" x1="276.635" x2="276.635" y1="387.432" y2="370.417"/><path d="   M276.635,370.417c0-5.829,4.787-10.615,10.633-10.615" fill="none" stroke="#130B7A" stroke-linecap="round" stroke-linejoin="round" stroke-miterlimit="2.6131" stroke-width="10"/><g><line fill="none" stroke="#130B7A" stroke-linecap="round" stroke-linejoin="round" stroke-miterlimit="2.6131" stroke-width="10" x1="179.955" x2="194.114" y1="277.802" y2="290.803"/><line fill="none" stroke="#130B7A" stroke-linecap="round" stroke-linejoin="round" stroke-miterlimit="2.6131" stroke-width="10" x1="220.082" x2="194.114" y1="262.45" y2="290.803"/></g><g><line fill="none" stroke="#130B7A" stroke-linecap="round" stroke-linejoin="round" stroke-miterlimit="2.6131" stroke-width="10" x1="384.232" x2="398.392" y1="376.145" y2="389.128"/><line fill="none" stroke="#130B7A" stroke-linecap="round" stroke-linejoin="round" stroke-miterlimit="2.6131" stroke-width="10" x1="424.359" x2="398.392" y1="360.776" y2="389.128"/></g></g></svg>