<?xml version="1.0" standalone="no"?>
<!DOCTYPE svg PUBLIC "-//W3C//DTD SVG 20010904//EN"
 "http://www.w3.org/TR/2001/REC-SVG-20010904/DTD/svg10.dtd">
<svg version="1.0" xmlns="http://www.w3.org/2000/svg"
 width="128.000000pt" height="128.000000pt" viewBox="0 0 128.000000 128.000000"
 preserveAspectRatio="xMidYMid meet">
<metadata>
Created by potrace 1.14, written by Peter Selinger 2001-2017
</metadata>
<g transform="translate(0.000000,128.000000) scale(0.100000,-0.100000)"
fill="#000000" stroke="none">
<path d="M402 948 c-7 -7 -12 -20 -12 -30 0 -13 -8 -18 -29 -18 -20 0 -36 -9
-50 -26 -20 -25 -21 -39 -21 -260 0 -128 3 -240 6 -249 15 -37 49 -41 344 -40
157 0 295 4 306 8 38 13 43 50 42 291 -1 226 -1 230 -24 253 -13 13 -35 23
-49 23 -18 0 -25 5 -25 20 0 23 -30 42 -49 31 -6 -4 -13 -17 -14 -29 -1 -20
-6 -20 -189 -21 -175 -1 -188 0 -188 17 0 17 -18 42 -30 42 -3 0 -11 -5 -18
-12z"/>
</g>
</svg>
